<svg width="40" height="40" viewBox="0 0 40 40" fill="none" xmlns="http://www.w3.org/2000/svg">
    <rect width="40" height="40" rx="4" fill="#E8F5E9"/>
    <path d="M20 12C17.24 12 15 14.24 15 17C15 19.76 17.24 22 20 22C22.76 22 25 19.76 25 17C25 14.24 22.76 12 20 12ZM20 20C18.34 20 17 18.66 17 17C17 15.34 18.34 14 20 14C21.66 14 23 15.34 23 17C23 18.66 21.66 20 20 20ZM20 23C16.67 23 14 25.67 14 29V30H26V29C26 25.67 23.33 23 20 23ZM16 28C16 26.34 17.34 25 19 25H21C22.66 25 24 26.34 24 28H16Z" fill="#4CAF50"/>
</svg> 